HIERARCHY
ROOT Hips
{
 OFFSET 0.000000 0.000000 0.000000
 CHANNELS 6 Xposition Yposition Zposition Yrotation Xrotation Zrotation
 JOINT Chest
 {
  OFFSET 0.000000 9.585900 0.002600
  CHANNELS 3 Yrotation Xrotation Zrotation
  JOINT Chest2
  {
   OFFSET 0.000000 9.601200 -0.005300
   CHANNELS 3 Yrotation Xrotation Zrotation
   JOINT Chest3
   {
    OFFSET 0.000000 9.561800 0.000000
    CHANNELS 3 Yrotation Xrotation Zrotation
    JOINT Chest4
    {
     OFFSET 0.000000 9.552100 0.000000
     CHANNELS 3 Yrotation Xrotation Zrotation
     JOINT Neck
     {
      OFFSET 0.000000 14.453000 0.000000
      CHANNELS 3 Yrotation Xrotation Zrotation
      JOINT Head
      {
       OFFSET 0.000000 8.936500 -0.011300
       CHANNELS 3 Yrotation Xrotation Zrotation
       End Site
       {
        OFFSET 0.000000 17.073600 -0.006000
       }
      }
     }
     JOINT RightCollar
     {
      OFFSET -2.921100 9.558500 0.000000
      CHANNELS 3 Yrotation Xrotation Zrotation
      JOINT RightShoulder
      {
       OFFSET -13.519700 0.000000 0.000000
       CHANNELS 3 Yrotation Xrotation Zrotation
       JOINT RightElbow
       {
        OFFSET 0.000000 -29.696600 0.000000
        CHANNELS 3 Yrotation Xrotation Zrotation
        JOINT RightWrist
        {
         OFFSET 0.000000 -24.004700 0.000000
         CHANNELS 3 Yrotation Xrotation Zrotation
         End Site
         {
          OFFSET 0.000000 -17.728500 0.000000
         }
        }
       }
      }
     }
     JOINT LeftCollar
     {
      OFFSET 2.921100 9.558500 0.000000
      CHANNELS 3 Yrotation Xrotation Zrotation
      JOINT LeftShoulder
      {
       OFFSET 13.519700 0.000000 0.000000
       CHANNELS 3 Yrotation Xrotation Zrotation
       JOINT LeftElbow
       {
        OFFSET 0.000000 -29.696600 0.000000
        CHANNELS 3 Yrotation Xrotation Zrotation
        JOINT LeftWrist
        {
         OFFSET 0.000000 -24.004700 0.000000
         CHANNELS 3 Yrotation Xrotation Zrotation
         End Site
         {
          OFFSET 0.000000 -17.728500 0.000000
         }
        }
       }
      }
     }
    }
   }
  }
 }
 JOINT RightHip
 {
  OFFSET -7.771700 -0.012900 -0.001300
  CHANNELS 3 Yrotation Xrotation Zrotation
  JOINT RightKnee
  {
   OFFSET 0.000000 -40.869800 0.001200
   CHANNELS 3 Yrotation Xrotation Zrotation
   JOINT RightAnkle
   {
    OFFSET 0.000000 -39.717900 0.002100
    CHANNELS 3 Yrotation Xrotation Zrotation
    JOINT RightToe
    {
     OFFSET 0.000000 -4.965400 11.033500
     CHANNELS 3 Yrotation Xrotation Zrotation
     End Site
     {
      OFFSET 0.000000 -1.423100 5.872300
     }
    }
   }
  }
 }
 JOINT LeftHip
 {
  OFFSET 7.771700 -0.012900 -0.001300
  CHANNELS 3 Yrotation Xrotation Zrotation
  JOINT LeftKnee
  {
   OFFSET 0.000000 -40.869800 0.001200
   CHANNELS 3 Yrotation Xrotation Zrotation
   JOINT LeftAnkle
   {
    OFFSET 0.000000 -39.717900 0.002100
    CHANNELS 3 Yrotation Xrotation Zrotation
    JOINT LeftToe
    {
     OFFSET 0.000000 -4.965400 11.033500
     CHANNELS 3 Yrotation Xrotation Zrotation
     End Site
     {
      OFFSET 0.000000 -1.423100 5.872300
     }
    }
   }
  }
 }
}
MOTION
Frames: 13
Frame Time: 0.008333
0.000000 85.388000 0.000000 0.000000 -5.767877 0.000000 0.000000 11.653817 0.000000 0.000000 -5.885947 0.000000 0.000000 -0.000000 0.000000 0.000000 -0.000000 0.000000 0.000000 12.528835 0.000000 0.000000 0.711642 0.000000 0.000000 -0.000000 0.000000 0.000000 0.000000 -90.000000 0.000000 -2.309062 0.000000 0.000000 2.309062 0.000000 0.000000 -0.000000 0.000000 0.000000 -0.000000 90.000000 0.000000 -2.309062 0.000000 0.000000 2.309062 0.000000 0.000000 8.520406 0.000000 0.000000 1.905762 0.000000 -0.000000 -4.658285 0.000000 0.000000 -0.000000 0.000000 0.000000 8.520406 0.000000 0.000000 1.905762 0.000000 -0.000000 -4.658285 0.000000 0.000000 -0.000000 0.000000
-106.290872 51.888711 -40.743551 -179.252289 -28.092176 0.115912 2.078384 25.516029 -0.209899 0.376699 4.121609 0.022877 0.562607 6.587337 0.038561 1.818028 21.053152 0.350060 -2.749936 16.477407 -3.180697 -2.181386 -8.363484 -2.735021 13.102466 12.556267 10.398417 71.237125 -10.620796 -61.969050 137.070629 -29.635945 -173.729391 4.162233 -2.112415 -22.476571 -15.036774 11.945382 -15.961212 -75.365935 -9.974529 62.466036 -144.289786 -37.682116 -175.052371 8.890607 3.980585 23.017730 -11.440889 -54.472368 1.699617 -85.952330 79.399875 -94.751281 -4.365388 -9.606475 6.924349 0.295465 -0.852593 0.145804 2.813283 -52.415685 -6.960369 19.905385 82.038572 24.470999 -2.622276 -7.905421 -1.407612 0.220248 0.495823 0.101307
-106.288293 51.887969 -40.746647 -179.257031 -28.082823 0.113968 2.057184 25.512702 -0.224238 0.343922 4.125828 0.012702 0.585573 6.579922 0.042312 1.811442 21.053549 0.340706 -2.721360 16.522283 -3.189982 -2.146212 -8.284470 -2.758541 13.158497 12.556952 10.310964 71.531705 -10.494454 -62.319355 136.582561 -29.581878 -173.313449 4.170512 -2.176185 -21.873549 -15.036946 11.919447 -15.956835 -75.654210 -9.918883 62.814173 -143.609971 -37.806424 -175.520663 8.807049 4.060051 22.512965 -11.447246 -54.479355 1.710788 -85.960478 79.396647 -94.757466 -4.364118 -9.607499 6.925215 0.293467 -0.852974 0.140358 2.797798 -52.427909 -6.943096 19.929261 82.043842 24.491001 -2.622231 -7.903332 -1.410978 0.221819 0.492117 0.099575
-106.284301 51.887488 -40.751240 -179.266519 -28.078554 0.108882 2.045160 25.514994 -0.231143 0.345937 4.123233 0.012374 0.539503 6.585722 0.027938 1.868352 21.044452 0.348274 -2.712419 16.536986 -3.193103 -2.130943 -8.175373 -2.785454 13.185471 12.554453 10.248657 71.810006 -10.356671 -62.659041 136.149562 -29.535982 -172.923462 4.165074 -2.208023 -21.292518 -15.061370 11.890458 -15.953414 -75.925506 -9.866625 63.149208 -142.921163 -37.921204 -175.986978 8.715077 4.156785 22.075256 -11.456271 -54.479783 1.729819 -85.976913 79.395163 -94.770780 -4.362061 -9.610071 6.922716 0.295025 -0.853147 0.137274 2.779317 -52.436256 -6.920682 19.879348 82.058733 24.445423 -2.607824 -7.902208 -1.419503 0.222907 0.488017 0.097190
-106.280125 51.886822 -40.756375 -179.264981 -28.074420 0.100547 2.031019 25.516003 -0.233998 0.354172 4.119199 0.014090 0.519005 6.589616 0.022039 1.844159 21.042283 0.334185 -2.686396 16.595278 -3.205883 -2.114758 -8.113372 -2.806176 13.239850 12.552078 10.221981 72.082803 -10.192595 -62.996972 135.775756 -29.497898 -172.565089 4.153524 -2.205618 -20.751734 -15.029984 11.872407 -15.951496 -76.200100 -9.817142 63.482863 -142.216478 -38.033673 -176.460352 8.608280 4.263482 21.663112 -11.478512 -54.480326 1.747130 -86.007967 79.390974 -94.798293 -4.352372 -9.616050 6.914203 0.296253 -0.854658 0.137081 2.750778 -52.446611 -6.900953 19.895542 82.069090 24.460316 -2.585098 -7.890390 -1.420730 0.220456 0.477261 0.090040
-106.277237 51.885127 -40.760294 -179.272768 -28.060034 0.107085 2.021700 25.507658 -0.248149 0.346130 4.119957 0.012054 0.519098 6.587376 0.018951 1.780373 21.047536 0.306269 -2.633419 16.647708 -3.218716 -2.103745 -8.052522 -2.825679 13.330165 12.544579 10.149815 72.338325 -10.077558 -63.308826 135.459874 -29.471778 -172.241571 4.138529 -2.173274 -20.258553 -14.966053 11.848129 -15.946466 -76.456914 -9.767874 63.805050 -141.488339 -38.150632 -176.946082 8.490646 4.369794 21.227190 -11.485103 -54.494234 1.753790 -86.012748 79.393977 -94.808152 -4.342208 -9.616402 6.911539 0.287363 -0.857574 0.135559 2.743041 -52.463214 -6.898718 19.924598 82.074759 24.488784 -2.570709 -7.888329 -1.428287 0.221470 0.484145 0.091100
-106.273868 51.884094 -40.766016 -179.270785 -28.056869 0.108078 2.004712 25.510086 -0.263822 0.343101 4.120638 0.015416 0.518378 6.582762 0.010741 1.766088 21.046476 0.294237 -2.653073 16.752130 -3.242984 -2.068503 -8.097486 -2.817972 13.373080 12.542656 10.085458 72.585884 -9.961928 -63.607160 135.195312 -29.462609 -171.953533 4.119464 -2.118678 -19.811394 -14.962913 11.815772 -15.935659 -76.683267 -9.708624 64.096203 -140.724374 -38.271017 -177.448431 8.378253 4.465574 20.742424 -11.492997 -54.498267 1.755172 -86.061943 79.389405 -94.852772 -4.345307 -9.618698 6.904599 0.292098 -0.860049 0.135479 2.708550 -52.469780 -6.885400 19.995218 82.078933 24.551595 -2.549166 -7.885988 -1.435872 0.214000 0.483174 0.086698
-106.269612 51.883368 -40.772673 -179.263900 -28.059824 0.102715 1.995105 25.514385 -0.267576 0.335833 4.121570 0.009985 0.515813 6.580567 0.005506 1.769635 21.045169 0.295256 -2.678394 16.822846 -3.267541 -2.065964 -8.019555 -2.833160 13.392773 12.545308 10.035133 72.836610 -9.824641 -63.903925 134.972789 -29.472111 -171.698504 4.097916 -2.046814 -19.406351 -14.974723 11.782718 -15.927883 -76.900388 -9.631151 64.363758 -139.939044 -38.386446 -177.957506 8.277434 4.542563 20.230941 -11.505429 -54.494703 1.759267 -86.127751 79.380072 -94.908721 -4.354224 -9.624918 6.895121 0.299170 -0.861280 0.137130 2.690900 -52.469024 -6.879515 19.986742 82.088928 24.549077 -2.534009 -7.887799 -1.441984 0.213946 0.481366 0.083439
-106.264921 51.881390 -40.777068 -179.269933 -28.047830 0.101661 1.997904 25.503608 -0.270066 0.329582 4.121258 0.003275 0.514495 6.581999 0.000974 1.771713 21.040608 0.296576 -2.695577 16.877245 -3.285450 -2.075042 -7.933256 -2.849585 13.410157 12.551508 9.983775 73.085681 -9.687531 -64.196351 134.792374 -29.497516 -171.475245 4.076406 -1.961639 -19.041577 -14.984980 11.752094 -15.919686 -77.098984 -9.546397 64.609469 -139.179974 -38.490655 -178.448676 8.186929 4.600655 19.729119 -11.513548 -54.505321 1.772214 -86.147688 79.376922 -94.925699 -4.350669 -9.626456 6.898524 0.302170 -0.860493 0.129232 2.683676 -52.483649 -6.872411 19.975132 82.099598 24.545057 -2.521263 -7.892457 -1.449789 0.215828 0.482432 0.081027
-106.261673 51.879619 -40.781642 -179.268114 -28.038036 0.105742 1.984332 25.499232 -0.291637 0.328112 4.119912 0.001212 0.518531 6.585280 -0.000413 1.743080 21.040088 0.265664 -2.679337 16.921642 -3.277631 -2.065234 -7.931792 -2.844962 13.455976 12.542157 9.952016 73.324498 -9.556224 -64.477360 134.657497 -29.533502 -171.283108 4.057717 -1.867891 -18.710887 -14.975420 11.706823 -15.883704 -77.257429 -9.475636 64.823464 -138.481074 -38.583585 -178.909584 8.106727 4.646746 19.256858 -11.519160 -54.516532 1.767033 -86.196064 79.371169 -94.969074 -4.338153 -9.637479 6.892167 0.296926 -0.851701 0.131171 2.652067 -52.497143 -6.867940 20.066611 82.102903 24.632288 -2.498750 -7.893674 -1.460454 0.198428 0.487911 0.077752
-106.258785 51.879805 -40.789460 -179.254452 -28.051489 0.106184 1.966299 25.521576 -0.309470 0.323781 4.132163 -0.011941 0.525808 6.569090 0.014742 1.728700 21.049555 0.242752 -2.684758 16.956034 -3.274940 -2.084875 -7.868055 -2.850168 13.478939 12.524914 9.911910 73.552437 -9.431092 -64.744655 134.553846 -29.578432 -171.113076 4.044468 -1.771203 -18.400740 -14.967717 11.678774 -15.857074 -77.423585 -9.417400 65.039948 -137.842554 -38.666568 -179.344523 8.030789 4.691922 18.811711 -11.540276 -54.509382 1.747995 -86.316639 79.363383 -95.075794 -4.317045 -9.649771 6.873256 0.306541 -0.858543 0.131158 2.636275 -52.483203 -6.874928 20.100946 82.107975 24.670640 -2.490599 -7.899199 -1.469472 0.195866 0.487581 0.076711
-106.254421 51.878286 -40.793519 -179.254781 -28.041004 0.104598 1.965898 25.523072 -0.318034 0.320908 4.133808 -0.013623 0.529554 6.561743 0.018625 1.725966 21.050683 0.237665 -2.705175 16.995687 -3.284437 -2.106925 -7.811666 -2.851413 13.488241 12.516919 9.861763 73.773579 -9.306348 -65.001576 134.454549 -29.633451 -170.952049 4.034689 -1.679463 -18.087385 -14.972930 11.654757 -15.848394 -77.576332 -9.368465 65.243061 -137.267329 -38.743297 -179.749154 7.957406 4.736802 18.375531 -11.554405 -54.520670 1.756805 -86.357586 79.357210 -95.111392 -4.307468 -9.653127 6.869111 0.308104 -0.860436 0.128783 2.631731 -52.494578 -6.872554 20.130505 82.112166 24.707989 -2.491439 -7.906258 -1.477870 0.194527 0.493652 0.078015
-106.250431 51.876880 -40.797010 -179.257936 -28.028831 0.106382 1.962072 25.524713 -0.332019 0.322986 4.132984 -0.012492 0.526510 6.563935 0.012806 1.731293 21.043508 0.239702 -2.724198 17.035180 -3.292399 -2.121097 -7.775484 -2.848639 13.497992 12.507312 9.840830 73.988657 -9.151953 -65.253387 134.342659 -29.694997 -170.792565 4.017369 -1.604751 -17.744152 -14.972084 11.633463 -15.840583 -77.724314 -9.327419 65.438609 -136.772401 -38.819539 179.889583 7.893963 4.770917 17.942316 -11.566632 -54.533696 1.765245 -86.388827 79.354289 -95.138294 -4.305892 -9.655867 6.865190 0.315257 -0.863202 0.124438 2.616961 -52.507506 -6.863094 20.182665 82.113405 24.758778 -2.489380 -7.912014 -1.487508 0.193025 0.499168 0.079441
